<?xml version="1.0" encoding="UTF-8" standalone="no"?>
<svg width="71px" height="56px" viewBox="0 0 71 56" version="1.1" xmlns="http://www.w3.org/2000/svg" xmlns:xlink="http://www.w3.org/1999/xlink" xmlns:sketch="http://www.bohemiancoding.com/sketch/ns">
    <!-- Generator: Sketch 3.3.2 (12043) - http://www.bohemiancoding.com/sketch -->
    <title>noun_32417</title>
    <desc>Created with Sketch.</desc>
    <defs></defs>
    <g id="Page-1" stroke="none" stroke-width="1" fill="none" fill-rule="evenodd" sketch:type="MSPage">
        <g id="Main-screen-Copy-5" sketch:type="MSArtboardGroup" transform="translate(-35.000000, -942.000000)" fill="#000000">
            <g id="noun_32417" sketch:type="MSLayerGroup" transform="translate(35.000000, 942.000000)">
                <g id="Group" transform="translate(19.914634, 2.584615)" sketch:type="MSShapeGroup">
                    <path d="M32.9180244,10.1067077 C32.9180244,10.6193231 32.4989512,11.0380308 31.9846341,11.0380308 L19.021939,11.0380308 C18.5093537,11.0380308 18.0868171,10.6193231 18.0868171,10.1067077 L18.0868171,8.24664615 C18.0868171,7.73489231 18.5093537,7.31618462 19.021939,7.31618462 L31.9846341,7.31618462 C32.4989512,7.31618462 32.9180244,7.73489231 32.9180244,8.24664615 L32.9180244,10.1067077 L32.9180244,10.1067077 Z" id="Shape"></path>
                    <path d="M13.4770122,28.2946462 L37.529561,28.2946462 L37.529561,16.8956308 L13.4770122,16.8956308 L13.4770122,28.2946462 L13.4770122,28.2946462 Z M38.6421829,32.1457231 L12.3617927,32.1457231 C10.8422195,32.1457231 9.60664634,30.9042462 9.60664634,29.3758769 L9.60664634,15.8178462 C9.60664634,14.2886154 10.8422195,13.0445538 12.3617927,13.0445538 L38.6421829,13.0445538 C40.162622,13.0445538 41.4007927,14.2877538 41.4007927,15.8178462 L41.4007927,29.3767385 C41.3981951,30.9042462 40.162622,32.1457231 38.6421829,32.1457231 L38.6421829,32.1457231 Z" id="Shape"></path>
                    <path d="M9.6075122,36.3801846 C9.6075122,35.0990769 10.6534634,34.0574769 11.9453171,34.0574769 C13.235439,34.0574769 14.2822561,35.0990769 14.2822561,36.3801846 C14.2822561,37.6638769 13.235439,38.7072 11.9453171,38.7072 C10.6534634,38.7072 9.6075122,37.6638769 9.6075122,36.3801846" id="Shape"></path>
                    <path d="M41.3981951,36.3801846 C41.3981951,37.6638769 40.351378,38.7072 39.0612561,38.7072 C37.7694024,38.7072 36.7225854,37.6638769 36.7225854,36.3801846 C36.7225854,35.0990769 37.7694024,34.0574769 39.0612561,34.0574769 C40.3522439,34.0557538 41.3981951,35.0973538 41.3981951,36.3801846" id="Shape"></path>
                    <path d="M13.2821951,41.7880615 L37.724378,41.7880615 L37.724378,47.6758154 C37.724378,48.6648615 38.5356829,49.4695385 39.5288171,49.4695385 C40.5245488,49.4695385 41.3349878,48.6648615 41.3349878,47.6758154 L41.3349878,42.1886769 L42.6216463,41.7346462 C42.9108415,41.6329846 43.2035,41.3409231 43.2035,40.9213538 L43.2035,22.4896 L46.0746707,22.4896 C46.5456951,22.4896 46.9439878,22.0932923 46.9439878,21.6246154 L46.9439878,16.2675692 C46.9439878,15.7971692 46.5456951,15.4 46.0746707,15.4 L43.2035,15.4 L43.2035,8.82215385 C43.2035,8.01403077 42.4926341,6.8656 41.7661829,6.50547692 C41.7306829,6.48824615 36.9070122,4.23618462 25.5037195,4.23618462 C14.122939,4.23618462 9.2880122,6.48307692 9.2429878,6.50633846 C8.51653659,6.86732308 7.80393902,8.01489231 7.80393902,8.82215385 L7.80393902,15.4 L4.93363415,15.4 C4.4617439,15.4 4.06431707,15.7971692 4.06431707,16.2675692 L4.06431707,21.6246154 C4.06431707,22.0932923 4.4617439,22.4896 4.93363415,22.4896 L7.80393902,22.4896 L7.80393902,40.9196308 C7.80393902,41.3400615 8.09573171,41.6312615 8.38665854,41.7337846 L9.67418293,42.1869538 L9.67418293,47.6740923 C9.67418293,48.6622769 10.4837561,49.4678154 11.4794878,49.4678154 C12.4743537,49.4678154 13.2839268,48.6622769 13.2839268,47.6740923 L13.2821951,41.7880615 L13.2821951,41.7880615 Z M39.5279512,53.3214769 C36.399622,53.3214769 33.8522805,50.7902769 33.8522805,47.6758154 L33.8522805,45.64 L17.1534268,45.64 L17.1534268,47.6758154 C17.1534268,50.7885538 14.6069512,53.3214769 11.4777561,53.3214769 C8.34856098,53.3214769 5.80208537,50.7902769 5.80208537,47.6758154 L5.80208537,44.6690462 C4.64703659,43.792 3.93184146,42.4144 3.93184146,40.9196308 L3.93184146,26.2355692 C1.7975122,25.7780923 0.192219512,23.8844308 0.192219512,21.6246154 L0.192219512,16.2675692 C0.192219512,14.0068923 1.7975122,12.1123692 3.93184146,11.6540308 L3.93184146,8.82301538 C3.93184146,6.55372308 5.47046341,4.07766154 7.51041463,3.06190769 C7.73034146,2.95249231 13.0336951,0.385107692 25.5019878,0.385107692 C37.9702805,0.385107692 43.2736341,2.95163077 43.4952927,3.06190769 C45.5335122,4.07766154 47.0738659,6.55372308 47.0738659,8.82301538 L47.0738659,11.6540308 C49.2081951,12.1123692 50.812622,14.0068923 50.812622,16.2675692 L50.812622,21.6246154 C50.812622,23.8844308 49.2073293,25.7780923 47.0738659,26.2355692 L47.0738659,40.9196308 C47.0738659,42.4135385 46.3586707,43.792 45.203622,44.6690462 L45.203622,47.6758154 C45.203622,50.7885538 42.658878,53.3214769 39.5279512,53.3214769 L39.5279512,53.3214769 Z" id="Shape"></path>
                </g>
                <rect id="Rectangle-path" sketch:type="MSShapeGroup" x="27.2241707" y="44.3726769" width="36.3849024" height="3.85193846"></rect>
                <path d="M13.8164268,0.218830769 L2.78718293,0.218830769 C1.25029268,0.218830769 0,1.45083077 0,2.96369231 L0,24.8045538 C0,26.3165538 1.25029268,27.5468308 2.78718293,27.5468308 L6.13543902,27.5468308 L6.13543902,29.6688 C6.13543902,29.8574769 6.16747561,30.0358154 6.21163415,30.2089846 C3.56471951,31.0817231 1.64771951,33.5629538 1.64771951,36.4835692 C1.64771951,39.3792 3.53008537,41.8414769 6.13890244,42.7366154 C6.13890244,42.7486769 6.13543902,42.7572923 6.13543902,42.7684923 L6.13543902,53.7513846 C6.13543902,54.9411692 7.10432927,55.9052308 8.30007317,55.9052308 C9.49581707,55.9052308 10.4647073,54.9411692 10.4647073,53.7513846 L10.4647073,42.7693538 C10.4647073,42.7581538 10.4621098,42.7495385 10.4612439,42.7374769 C13.070061,41.8423385 14.9524268,39.3809231 14.9524268,36.4844308 C14.9524268,33.5620923 13.0354268,31.0817231 10.3885122,30.2098462 C10.4335366,30.0366769 10.4647073,29.8583385 10.4647073,29.6696615 L10.4647073,27.5476923 L13.8164268,27.5476923 C15.3515854,27.5476923 16.6001463,26.3174154 16.6001463,24.8054154 L16.6001463,2.96369231 C16.5992805,1.45083077 15.3507195,0.218830769 13.8164268,0.218830769 L13.8164268,0.218830769 Z M8.30007317,38.7942154 C7.01947561,38.7942154 5.9769878,37.7577846 5.9769878,36.4835692 C5.9769878,35.2102154 7.01947561,34.1755077 8.30007317,34.1755077 C9.58067073,34.1755077 10.6231585,35.2102154 10.6231585,36.4835692 C10.6231585,37.7577846 9.58067073,38.7942154 8.30007317,38.7942154 L8.30007317,38.7942154 Z M12.7297805,23.6948923 L3.87036585,23.6948923 L3.87036585,4.07076923 L12.7297805,4.07076923 L12.7297805,23.6948923 L12.7297805,23.6948923 Z" id="Shape" sketch:type="MSShapeGroup"></path>
            </g>
        </g>
    </g>
</svg>