<?xml version="1.0" encoding="UTF-8" standalone="no"?>
<svg width="100px" height="100px" viewBox="0 0 100 100" version="1.1" xmlns="http://www.w3.org/2000/svg" xmlns:xlink="http://www.w3.org/1999/xlink" xmlns:sketch="http://www.bohemiancoding.com/sketch/ns">
    <!-- Generator: Sketch 3.3.2 (12043) - http://www.bohemiancoding.com/sketch -->
    <title>sunny</title>
    <desc>Created with Sketch.</desc>
    <defs></defs>
    <g id="Page-1" stroke="none" stroke-width="1" fill="none" fill-rule="evenodd" sketch:type="MSPage">
        <g id="sunny" sketch:type="MSLayerGroup" fill="#ffffff">
            <path d="M49.9986842,15.7013158 C51.4513158,15.7013158 52.6302632,14.5223684 52.6302632,13.0697368 L52.6302632,2.75 C52.6302632,1.29736842 51.4513158,0.118421053 49.9986842,0.118421053 C48.5460526,0.118421053 47.3671053,1.29736842 47.3671053,2.75 L47.3671053,13.0697368 C47.3671053,14.5223684 48.5460526,15.7013158 49.9986842,15.7013158 L49.9986842,15.7013158 Z" id="Shape" sketch:type="MSShapeGroup"></path>
            <path d="M49.9986842,84.3065789 C48.5460526,84.3065789 47.3671053,85.4855263 47.3671053,86.9381579 L47.3671053,97.25 C47.3671053,98.7026316 48.5460526,99.8815789 49.9986842,99.8815789 C51.4513158,99.8815789 52.6302632,98.7026316 52.6302632,97.25 L52.6302632,86.9381579 C52.6302632,85.4855263 51.4526316,84.3065789 49.9986842,84.3065789 L49.9986842,84.3065789 Z" id="Shape" sketch:type="MSShapeGroup"></path>
            <path d="M22.0223684,25.7447368 C22.5355263,26.2592105 23.2092105,26.5157895 23.8828947,26.5157895 C24.5565789,26.5157895 25.2289474,26.2592105 25.7434211,25.7447368 C26.7710526,24.7171053 26.7710526,23.0513158 25.7434211,22.0236842 L18.45,14.7289474 C17.4236842,13.7013158 15.7565789,13.7013158 14.7289474,14.7289474 C13.7013158,15.7565789 13.7013158,17.4223684 14.7289474,18.45 L22.0223684,25.7447368 L22.0223684,25.7447368 Z" id="Shape" sketch:type="MSShapeGroup"></path>
            <path d="M77.9776316,74.2565789 C76.95,73.2289474 75.2828947,73.2302632 74.2552632,74.2552632 C73.2276316,75.2828947 73.2276316,76.9486842 74.2539474,77.9776316 L81.5486842,85.2789474 C82.0631579,85.7934211 82.7368421,86.05 83.4105263,86.05 C84.0842105,86.05 84.7565789,85.7934211 85.2710526,85.2802632 C86.2986842,84.2526316 86.2986842,82.5868421 85.2723684,81.5578947 L77.9776316,74.2565789 L77.9776316,74.2565789 Z" id="Shape" sketch:type="MSShapeGroup"></path>
            <path d="M15.6973684,50.0013158 C15.6973684,48.5486842 14.5184211,47.3697368 13.0657895,47.3697368 L2.75,47.3697368 C1.29736842,47.3697368 0.118421053,48.5486842 0.118421053,50.0013158 C0.118421053,51.4539474 1.29736842,52.6328947 2.75,52.6328947 L13.0657895,52.6328947 C14.5184211,52.6328947 15.6973684,51.4539474 15.6973684,50.0013158 L15.6973684,50.0013158 Z" id="Shape" sketch:type="MSShapeGroup"></path>
            <path d="M97.25,47.3697368 L86.9342105,47.3697368 C85.4815789,47.3697368 84.3026316,48.5486842 84.3026316,50.0013158 C84.3026316,51.4539474 85.4815789,52.6328947 86.9342105,52.6328947 L97.25,52.6328947 C98.7026316,52.6328947 99.8815789,51.4539474 99.8815789,50.0013158 C99.8815789,48.5486842 98.7039474,47.3697368 97.25,47.3697368 L97.25,47.3697368 Z" id="Shape" sketch:type="MSShapeGroup"></path>
            <path d="M22.0210526,74.2565789 L14.7263158,81.5578947 C13.7,82.5868421 13.7,84.2526316 14.7276316,85.2802632 C15.2421053,85.7934211 15.9144737,86.05 16.5881579,86.05 C17.2618421,86.05 17.9355263,85.7934211 18.45,85.2789474 L25.7447368,77.9776316 C26.7710526,76.9486842 26.7710526,75.2828947 25.7434211,74.2552632 C24.7144737,73.2276316 23.0486842,73.2289474 22.0210526,74.2565789 L22.0210526,74.2565789 Z" id="Shape" sketch:type="MSShapeGroup"></path>
            <path d="M76.1157895,26.5157895 C76.7894737,26.5157895 77.4618421,26.2592105 77.9763158,25.7447368 L85.2710526,18.45 C86.2986842,17.4223684 86.2986842,15.7565789 85.2710526,14.7289474 C84.2434211,13.7013158 82.5776316,13.7013158 81.55,14.7289474 L74.2552632,22.0236842 C73.2276316,23.0513158 73.2276316,24.7171053 74.2552632,25.7447368 C74.7684211,26.2592105 75.4421053,26.5157895 76.1157895,26.5157895 L76.1157895,26.5157895 Z" id="Shape" sketch:type="MSShapeGroup"></path>
            <path d="M50,20.5855263 C33.7776316,20.5855263 20.5802632,33.7815789 20.5802632,50.0013158 C20.5802632,66.2236842 33.7776316,79.4210526 50,79.4210526 C66.2223684,79.4210526 79.4197368,66.2236842 79.4197368,50.0013158 C79.4197368,33.7815789 66.2223684,20.5855263 50,20.5855263 L50,20.5855263 Z M50,74.1578947 C36.6789474,74.1578947 25.8434211,63.3210526 25.8434211,50.0013158 C25.8434211,36.6828947 36.6802632,25.8486842 50,25.8486842 C63.3197368,25.8486842 74.1565789,36.6842105 74.1565789,50.0013158 C74.1565789,63.3210526 63.3197368,74.1578947 50,74.1578947 L50,74.1578947 Z" id="Shape" sketch:type="MSShapeGroup"></path>
        </g>
    </g>
</svg>