<?xml version="1.0" encoding="UTF-8" standalone="no"?>
<svg width="100px" height="80px" viewBox="0 0 100 80" version="1.1" xmlns="http://www.w3.org/2000/svg" xmlns:xlink="http://www.w3.org/1999/xlink" xmlns:sketch="http://www.bohemiancoding.com/sketch/ns">
    <!-- Generator: Sketch 3.3.2 (12043) - http://www.bohemiancoding.com/sketch -->
    <title>few clouds</title>
    <desc>Created with Sketch.</desc>
    <defs></defs>
    <g id="Page-1" stroke="none" stroke-width="1" fill="none" fill-rule="evenodd" sketch:type="MSPage">
        <g id="few-clouds" sketch:type="MSLayerGroup" fill="#ffffff">
            <g id="Group" sketch:type="MSShapeGroup">
                <path d="M97.474,36.046 L89.634,36.046 C88.53,36.046 87.634,36.942 87.634,38.046 C87.634,39.15 88.53,40.046 89.634,40.046 L97.474,40.046 C98.579,40.046 99.474,39.15 99.474,38.046 C99.474,36.942 98.579,36.046 97.474,36.046 L97.474,36.046 Z" id="Shape"></path>
                <path d="M22.836,63.553 L2.529,63.553 C1.425,63.553 0.529,64.449 0.529,65.553 C0.529,66.657 1.425,67.553 2.529,67.553 L15.831,67.553 C15.105,68.772 14.68,70.19 14.68,71.708 C14.68,76.205 18.339,79.863 22.836,79.863 C27.333,79.863 30.991,76.205 30.991,71.708 C30.991,67.211 27.333,63.553 22.836,63.553 L22.836,63.553 Z M22.836,75.863 C20.544,75.863 18.68,73.999 18.68,71.708 C18.68,69.417 20.544,67.553 22.836,67.553 C25.127,67.553 26.991,69.417 26.991,71.708 C26.991,73.999 25.127,75.863 22.836,75.863 L22.836,75.863 Z" id="Shape"></path>
                <path d="M2.527,57.291 L36.742,57.291 C36.999,57.291 37.243,57.238 37.47,57.149 C41.627,56.78 44.899,53.283 44.899,49.032 C44.899,44.534 41.24,40.875 36.743,40.875 C32.246,40.875 28.587,44.534 28.587,49.032 C28.587,50.594 29.036,52.05 29.801,53.291 L2.527,53.291 C1.423,53.291 0.527,54.187 0.527,55.291 C0.527,56.395 1.422,57.291 2.527,57.291 L2.527,57.291 Z M36.742,44.875 C39.034,44.875 40.898,46.74 40.898,49.032 C40.898,51.323 39.034,53.186 36.742,53.186 C34.45,53.186 32.586,51.323 32.586,49.032 C32.586,46.74 34.45,44.875 36.742,44.875 L36.742,44.875 Z" id="Shape"></path>
                <path d="M2.529,47.03 L12.119,47.03 C12.375,47.03 12.618,46.977 12.843,46.89 C17.002,46.522 20.276,43.024 20.276,38.773 C20.276,34.274 16.617,30.615 12.12,30.615 C7.623,30.615 3.964,34.275 3.964,38.773 C3.964,40.335 4.413,41.789 5.177,43.03 L2.529,43.03 C1.425,43.03 0.529,43.926 0.529,45.03 C0.529,46.134 1.424,47.03 2.529,47.03 L2.529,47.03 Z M12.119,34.615 C14.411,34.615 16.275,36.48 16.275,38.773 C16.275,41.063 14.411,42.926 12.119,42.926 C9.827,42.926 7.963,41.063 7.963,38.773 C7.963,36.48 9.827,34.615 12.119,34.615 L12.119,34.615 Z" id="Shape"></path>
                <path d="M61.562,11.977 C62.667,11.977 63.562,11.081 63.562,9.977 L63.562,2.137 C63.562,1.033 62.667,0.137 61.562,0.137 C60.458,0.137 59.562,1.033 59.562,2.137 L59.562,9.977 C59.562,11.081 60.458,11.977 61.562,11.977 L61.562,11.977 Z" id="Shape"></path>
                <path d="M40.301,19.613 C40.692,20.004 41.203,20.199 41.716,20.199 C42.228,20.199 42.739,20.004 43.13,19.614 C43.911,18.833 43.911,17.567 43.13,16.785 L37.587,11.24 C36.806,10.459 35.54,10.459 34.758,11.24 C33.977,12.021 33.977,13.287 34.758,14.069 L40.301,19.613 L40.301,19.613 Z" id="Shape"></path>
                <path d="M82.827,56.48 C82.046,55.699 80.778,55.7 79.997,56.479 C79.216,57.26 79.216,58.527 79.997,59.308 L85.542,64.856 C85.933,65.247 86.444,65.442 86.956,65.442 C87.468,65.442 87.979,65.247 88.37,64.857 C89.151,64.076 89.151,62.809 88.372,62.028 L82.827,56.48 L82.827,56.48 Z" id="Shape"></path>
                <path d="M81.411,20.199 C81.923,20.199 82.434,20.004 82.825,19.613 L88.37,14.068 C89.151,13.287 89.151,12.021 88.37,11.24 C87.589,10.459 86.323,10.459 85.542,11.24 L79.997,16.785 C79.216,17.566 79.216,18.832 79.997,19.613 C80.388,20.004 80.899,20.199 81.411,20.199 L81.411,20.199 Z" id="Shape"></path>
                <path d="M83.923,38.046 C83.923,25.719 73.894,15.69 61.564,15.69 C51.654,15.69 43.035,22.22 40.203,31.52 C38.34,30.887 36.369,30.542 34.358,30.542 C31.145,30.542 27.969,31.399 25.174,33.019 C24.639,33.328 24.095,33.684 23.558,34.076 C22.666,34.727 22.47,35.978 23.121,36.87 C23.772,37.762 25.023,37.957 25.915,37.307 C26.338,36.998 26.762,36.722 27.177,36.482 C29.365,35.213 31.848,34.543 34.357,34.543 C36.487,34.543 38.53,35.008 40.381,35.863 C40.475,35.933 40.575,35.997 40.683,36.05 C43.201,37.297 45.278,39.206 46.689,41.573 L47.665,43.21 L49.348,42.314 C51.297,41.277 53.719,41.312 55.644,42.425 C57.652,43.59 58.898,45.743 58.898,48.045 C58.898,49.213 58.58,50.362 57.978,51.369 C57.974,51.374 57.974,51.38 57.97,51.386 L57.269,52.56 L58.126,53.639 C58.128,53.64 58.128,53.642 58.128,53.643 C59.232,55.027 59.911,56.733 60.093,58.579 C60.105,58.694 60.128,58.805 60.159,58.913 C60.171,59.11 60.182,59.308 60.182,59.507 C60.182,62.863 58.37,65.999 55.45,67.689 C52.698,69.284 49.276,69.378 46.426,67.924 L45.177,67.287 L44.153,68.244 C43.342,69.002 42.462,69.658 41.539,70.193 C39.656,71.281 37.609,71.917 35.456,72.083 C34.354,72.168 33.53,73.129 33.615,74.23 C33.696,75.28 34.572,76.077 35.607,76.077 C35.658,76.077 35.711,76.075 35.762,76.071 C38.517,75.859 41.135,75.047 43.542,73.655 C44.349,73.187 45.126,72.651 45.866,72.052 C49.603,73.51 53.945,73.183 57.454,71.15 C61.393,68.87 63.913,64.732 64.159,60.23 C75.392,58.952 83.923,49.575 83.923,38.046 L83.923,38.046 Z M63.782,56.253 C63.427,54.828 62.844,53.47 62.032,52.22 C62.602,50.907 62.899,49.486 62.899,48.044 L62.899,48.043 L62.899,48.041 C62.899,44.316 60.889,40.837 57.651,38.958 C55.087,37.476 51.936,37.153 49.155,38.062 C48.826,37.615 48.473,37.189 48.107,36.776 C48.056,36.719 48.007,36.66 47.955,36.604 C47.58,36.191 47.188,35.797 46.779,35.421 C46.756,35.4 46.732,35.379 46.709,35.358 C45.827,34.556 44.872,33.841 43.858,33.226 C46.005,25.303 53.235,19.691 61.563,19.691 C71.686,19.691 79.922,27.926 79.922,38.047 C79.923,47.482 72.964,55.169 63.782,56.253 L63.782,56.253 Z" id="Shape"></path>
            </g>
        </g>
    </g>
</svg>