<?xml version="1.0" encoding="UTF-8" standalone="no"?>
<svg width="100px" height="81px" viewBox="0 0 100 81" version="1.1" xmlns="http://www.w3.org/2000/svg" xmlns:xlink="http://www.w3.org/1999/xlink" xmlns:sketch="http://www.bohemiancoding.com/sketch/ns">
    <!-- Generator: Sketch 3.3.2 (12043) - http://www.bohemiancoding.com/sketch -->
    <title>cloudy</title>
    <desc>Created with Sketch.</desc>
    <defs></defs>
    <g id="Page-1" stroke="none" stroke-width="1" fill="none" fill-rule="evenodd" sketch:type="MSPage">
        <path d="M47.2751056,80.5836913 C33.0646444,80.5836913 20.6448534,71.405844 16.3776493,58.015591 C14.7867282,57.4994255 13.2841915,56.8330063 11.8912517,56.0269396 C4.55710523,51.7809478 0,43.895282 0,35.4510261 C0,27.0050026 4.55533754,19.1175691 11.889484,14.8662742 C15.0978417,13.0066642 18.6915557,11.9230701 22.3595128,11.6985735 C24.8112991,8.75713705 27.7226848,6.30004773 31.0353361,4.38033621 C35.9777978,1.51491047 41.5919818,0 47.2733379,0 C57.7610436,0 67.3348535,4.91594633 73.442223,13.2947977 C78.3599371,11.6950381 83.9210903,12.266002 88.4463771,14.8821835 C94.1754609,18.2089763 97.7285181,24.3587704 97.7285181,30.9416485 C97.7285181,33.4888901 97.2017465,36.0007778 96.1941631,38.3235227 C98.6919093,42.1629457 100,46.5715649 100,51.1993778 C100,59.647169 95.4428948,67.5346025 88.1052129,71.782362 C81.9006205,75.3760761 74.2164713,75.9576461 67.6212194,73.3768185 C66.316664,74.4338972 64.9396334,75.3813792 63.5131074,76.2104258 C58.5618073,79.0723162 52.9476233,80.5836913 47.2751056,80.5836913 L47.2751056,80.5836913 Z M23.6569974,18.7250717 C20.8728854,18.7286071 17.9844797,19.5081538 15.4354705,20.9859338 C10.2773506,23.9750799 7.07252833,29.5185229 7.07252833,35.452623 C7.07252833,41.3814201 10.2773506,46.9213278 15.4354705,49.9104738 C16.8089657,50.7059296 18.35923,51.3087083 20.0403033,51.7029009 C21.3307172,52.0051741 22.3436036,53.0021453 22.6653232,54.2872483 C25.4936275,65.607468 35.6136536,73.5142985 47.2751056,73.5142985 C51.7049372,73.5142985 56.0976472,72.3299532 59.9706563,70.0903032 C61.6057697,69.142827 63.1631048,67.9832292 64.5896307,66.6468635 C65.6732248,65.6304478 67.2800552,65.3988818 68.6111258,66.0812061 C73.6490428,68.6514121 79.6963108,68.4817149 84.5592265,65.6640337 C89.7208817,62.678423 92.925704,57.13498 92.925704,51.2008799 C92.925704,47.4092073 91.670644,43.8261209 89.2948684,40.8387425 C88.3774372,39.6862155 88.2731435,38.0864655 89.0297149,36.8243423 C90.095632,35.0442891 90.6577575,33.0114576 90.6577575,30.9415049 C90.6577575,26.870539 88.4552156,23.0629573 84.9074614,21.0053783 C81.4940517,19.0361833 77.2180092,18.9743145 73.7798519,20.8091659 C72.1093847,21.6983087 70.0429549,21.1202775 69.077796,19.5028507 C64.4358417,11.7215255 56.2850224,7.07429602 47.2768733,7.07429602 C42.839971,7.07429602 38.4507963,8.2586413 34.584858,10.5000589 C31.5921585,12.2341525 29.016634,14.5303682 26.9272242,17.3268372 C26.2413604,18.2460306 25.1436248,18.7957789 24.0070001,18.7462839 C23.9362924,18.7445162 23.7259373,18.7321425 23.6569974,18.7250717 L23.6569974,18.7250717 Z" id="cloudy" fill="#ffffff" sketch:type="MSShapeGroup"></path>
    </g>
</svg>