<?xml version="1.0" encoding="UTF-8" standalone="no"?>
<svg width="100px" height="78px" viewBox="0 0 100 78" version="1.1" xmlns="http://www.w3.org/2000/svg" xmlns:xlink="http://www.w3.org/1999/xlink" xmlns:sketch="http://www.bohemiancoding.com/sketch/ns">
    <!-- Generator: Sketch 3.3.2 (12043) - http://www.bohemiancoding.com/sketch -->
    <title>heavily cloudy</title>
    <desc>Created with Sketch.</desc>
    <defs></defs>
    <g id="Page-1" stroke="none" stroke-width="1" fill="none" fill-rule="evenodd" sketch:type="MSPage">
        <path d="M97.0822829,29.8479956 C97.8459905,28.0537249 98.2425878,26.1179176 98.2425878,24.1555723 C98.2425878,18.9835906 95.4516638,14.1536556 90.9593525,11.547024 C87.4518997,9.51980775 83.1453551,9.05686526 79.3164964,10.2540286 C74.5661757,3.87308889 66.9924956,0 58.9897828,0 C54.5564451,0 50.1747092,1.18241998 46.317838,3.4175181 C43.7583853,4.89922892 41.5055951,6.7937547 39.6036976,9.05981394 C37.5455202,9.19692748 35.5256756,9.6952541 33.579548,10.525307 C30.880033,11.1253631 28.2910935,12.1264393 25.8849721,13.5226385 C23.1205862,15.1252451 20.6908753,17.1760508 18.6489156,19.6278768 C15.5911363,19.8136435 12.5952792,20.7174134 9.91640497,22.2684182 C3.80084627,25.8142038 0,32.392705 0,39.4385717 C0,46.4814897 3.80084627,53.0570422 9.91787931,56.5984048 C11.0826072,57.2721777 12.3357955,57.8265293 13.659752,58.2555619 C17.220281,69.4222065 27.5775134,77.0799239 39.4297256,77.0799239 C44.1608799,77.0799239 48.843381,75.819364 52.9730049,73.4309346 C54.1627965,72.7409439 55.308358,71.9506981 56.399369,71.067569 C61.9075,73.2171554 68.3179265,72.7350465 73.4854851,69.7362407 C77.8554263,67.2077491 81.0355758,63.1503678 82.4922229,58.3867781 C85.3657098,58.2113318 88.1816976,57.4019196 90.6895484,55.9467469 C96.4335737,52.6250608 100,46.4520029 100,39.8351689 C99.9985257,36.2466274 98.9959751,32.8305837 97.0822829,29.8479956 L97.0822829,29.8479956 Z M70.5279608,64.6320787 C66.4794256,66.9821752 61.4298141,67.1237118 57.2235246,64.9785484 C56.1133472,64.4138765 54.7761216,64.6040662 53.8723517,65.4503369 C52.6751883,66.5678859 51.3792443,67.5350524 50.0184292,68.3238238 C46.7881522,70.1918115 43.1258938,71.1796187 39.4297256,71.1796187 C29.7035104,71.1796187 21.2629189,64.5834255 18.9039763,55.1417577 C18.6356466,54.0669645 17.7879016,53.2339629 16.7101597,52.9833252 C15.3154349,52.6589706 14.0253881,52.156221 12.8724549,51.4898197 C8.57180769,49.0011352 5.89883085,44.3820308 5.89883085,39.435623 C5.89883085,34.4862665 8.57180769,29.8612647 12.8724549,27.3681572 C14.9999263,26.1370841 17.4104708,25.4854262 19.7207602,25.4810031 C19.7885798,25.4869005 19.9787695,25.4986952 20.0465891,25.4986952 C21.046191,25.5208103 21.8924617,25.0740855 22.4586079,24.3148009 C24.1968538,21.9853451 26.3449659,20.0701785 28.8439707,18.6209032 C30.7856753,17.4945081 32.8762882,16.6895189 35.0553614,16.2265764 C35.0627331,16.2251021 35.0701048,16.2251021 35.0789509,16.2236278 C36.5134828,15.9199139 37.9775016,15.7651083 39.4312,15.7651083 C46.9444322,15.7651083 53.7426099,19.6396715 57.6142244,26.1311867 C58.4192136,27.4816813 60.1441904,27.9637902 61.5359665,27.2207233 C62.1507659,26.8919457 62.7980008,26.6516284 63.4585047,26.4688104 C65.659693,25.862857 68.0466481,26.0574697 70.1387353,27.0511743 C70.3657835,27.1588011 70.5972548,27.2590561 70.8169313,27.3858493 C73.7744556,29.1034544 75.6114822,32.2777065 75.6114822,35.6731095 C75.6114822,37.3995606 75.1441166,39.0950506 74.2565645,40.5752871 C73.9410559,41.1016262 73.8054167,41.7002079 73.8452239,42.2855205 C73.8820824,42.8708331 74.0958615,43.4472997 74.4791897,43.9279343 C76.4607015,46.4166188 77.5074823,49.4065785 77.5074823,52.5690359 C77.5074823,53.2826161 77.4352397,54.0330547 77.2789597,54.9294529 C77.2774854,54.9368246 77.2789597,54.9441963 77.2774854,54.951568 C76.5653796,59.0310643 74.1091306,62.5591579 70.5279608,64.6320787 L70.5279608,64.6320787 Z M87.7320241,50.8425848 C86.3874268,51.6225102 84.9160364,52.1488493 83.4004158,52.3965383 C83.3989414,52.3051292 83.3900954,52.2181432 83.3886211,52.1267342 C83.379775,51.7566751 83.3679803,51.3866159 83.3414422,51.0195055 C83.3296475,50.877969 83.3104811,50.7393811 83.2957377,50.5978445 C83.2647766,50.2734899 83.2323411,49.9491353 83.1851623,49.6277294 C83.1586241,49.4537574 83.1217657,49.282734 83.0922789,49.108762 C83.0421514,48.8242145 82.9949725,48.5367184 82.9330503,48.2551196 C82.8888201,48.0546095 82.8313209,47.8570481 82.779719,47.6594866 C82.7163224,47.408849 82.6573488,47.1552627 82.5821575,46.9060993 C82.518761,46.6952688 82.4420953,46.4903357 82.3713271,46.2824539 C82.2931871,46.0495083 82.2209445,45.813614 82.1339585,45.5821428 C82.0602415,45.3890044 81.9732555,45.1988146 81.8936412,45.0071505 C81.7948605,44.7683076 81.6990284,44.526516 81.5899273,44.2906217 C81.5294794,44.1594055 81.4572368,44.0326124 81.3938402,43.9013962 C81.0458962,43.1951878 80.6640423,42.500774 80.2291123,41.8328984 C81.0694856,39.8970911 81.5088387,37.8020552 81.5088387,35.6760582 C81.5088387,35.6760582 81.5088387,35.6760582 81.5088387,35.6745839 C81.5088387,35.6745839 81.5088387,35.6745839 81.5088387,35.6731095 C81.5088387,30.1826706 78.5439427,25.0519705 73.7700326,22.2816872 C69.9971988,20.1011397 65.3648252,19.6249281 61.2558421,20.9562564 C60.8371298,20.3812641 60.3918793,19.8342843 59.9348342,19.2990992 C59.8257331,19.1708317 59.7136833,19.0425642 59.6001592,18.915771 C59.1578575,18.4174444 58.7052354,17.9323868 58.2304982,17.472393 C58.2054344,17.4473292 58.181845,17.4207911 58.1553069,17.3957274 C57.6481342,16.9047724 57.1188465,16.4418299 56.577764,15.9951052 C56.4657142,15.9022218 56.3521901,15.8108128 56.238666,15.7208781 C55.7373907,15.3213322 55.2243207,14.9365297 54.6979816,14.5753166 C54.6463798,14.5399325 54.5962522,14.5015997 54.5446504,14.4662155 C53.9622864,14.0710926 53.3637047,13.7054565 52.7533283,13.3589868 C52.6412785,13.2955903 52.5292288,13.2366167 52.4157047,13.1746944 C51.8672505,12.8724549 51.3070016,12.5908561 50.7379067,12.3284238 C50.6582924,12.2915653 50.5801524,12.2517581 50.4990638,12.216374 C49.8577263,11.9288779 49.204594,11.6679199 48.5396671,11.4320256 C48.4320403,11.3936928 48.3214649,11.359783 48.2123638,11.3229245 C47.6211538,11.12094 47.0210978,10.9395963 46.4151444,10.7788934 C46.3458505,10.759727 46.2780309,10.7346632 46.2087369,10.7169711 C47.1537883,9.88839253 48.178454,9.15417164 49.2768367,8.51873148 C52.2373096,6.80260073 55.5958542,5.89588217 58.9927315,5.89588217 C65.8911643,5.89588217 72.1290931,9.45198815 75.6807761,15.4083182 C76.4857653,16.7602872 78.2092677,17.2379731 79.6025182,16.4993292 C82.1958807,15.1134504 85.4320551,15.1606292 88.0062512,16.6482374 C90.6836511,18.2021909 92.3481799,21.0771522 92.3481799,24.1540979 C92.3481799,25.7183717 91.9235703,27.2531588 91.1215298,28.5948074 C90.4905126,29.6489599 90.578973,30.9832368 91.3426806,31.9445059 C93.1502204,34.2179368 94.1041178,36.9454642 94.1041178,39.8336945 C94.1011692,44.3510696 91.6626122,48.5691539 87.7320241,50.8425848 L87.7320241,50.8425848 Z" id="heavily-cloudy" fill="#ffffff" sketch:type="MSShapeGroup"></path>
    </g>
</svg>