<?xml version="1.0" encoding="UTF-8" standalone="no"?>
<svg width="86px" height="100px" viewBox="0 0 86 100" version="1.1" xmlns="http://www.w3.org/2000/svg" xmlns:xlink="http://www.w3.org/1999/xlink" xmlns:sketch="http://www.bohemiancoding.com/sketch/ns">
    <!-- Generator: Sketch 3.3.2 (12043) - http://www.bohemiancoding.com/sketch -->
    <title>shower rain</title>
    <desc>Created with Sketch.</desc>
    <defs></defs>
    <g id="Page-1" stroke="none" stroke-width="1" fill="none" fill-rule="evenodd" sketch:type="MSPage">
        <g id="shower-rain" sketch:type="MSLayerGroup" transform="translate(-1.000000, 0.000000)" fill="#ffffff">
            <path d="M43.9393939,53.819697 C42.2666667,53.819697 40.9090909,55.1772727 40.9090909,56.85 L40.9090909,96.2439394 C40.9090909,97.9166667 42.2666667,99.2742424 43.9393939,99.2742424 C45.6121212,99.2742424 46.969697,97.9166667 46.969697,96.2439394 L46.969697,56.85 C46.969697,55.1787879 45.6121212,53.819697 43.9393939,53.819697 L43.9393939,53.819697 Z" id="Shape" sketch:type="MSShapeGroup"></path>
            <path d="M34.4545455,37.1545455 C32.7818182,37.1545455 31.4242424,38.5121212 31.4242424,40.1848485 L31.4242424,79.5772727 C31.4242424,81.2515152 32.7818182,82.6075758 34.4545455,82.6075758 C36.1272727,82.6075758 37.4848485,81.2515152 37.4848485,79.5772727 L37.4848485,40.1848485 C37.4848485,38.5121212 36.1287879,37.1545455 34.4545455,37.1545455 L34.4545455,37.1545455 Z" id="Shape" sketch:type="MSShapeGroup"></path>
            <path d="M53.4242424,44.730303 C51.7515152,44.730303 50.3939394,46.0878788 50.3939394,47.7606061 L50.3939394,87.1530303 C50.3939394,88.8272727 51.7515152,90.1833333 53.4242424,90.1833333 C55.0969697,90.1833333 56.4545455,88.8272727 56.4545455,87.1530303 L56.4545455,47.7606061 C56.4545455,46.0878788 55.0969697,44.730303 53.4242424,44.730303 L53.4242424,44.730303 Z" id="Shape" sketch:type="MSShapeGroup"></path>
            <path d="M83.5333333,33.5712121 C84.3969697,31.5818182 84.8484848,29.4272727 84.8484848,27.2439394 C84.8484848,21.6 81.8030303,16.3287879 76.8954545,13.4818182 C73.0151515,11.2409091 68.25,10.75 64.0348485,12.1212121 C58.8,4.93939394 50.5939394,0.725757576 41.6045455,0.725757576 C36.7348485,0.725757576 31.9212121,2.02424242 27.6848485,4.48030303 C24.8454545,6.12575758 22.35,8.23333333 20.2484848,10.7545455 C17.1045455,10.9469697 14.0242424,11.8742424 11.2742424,13.4681818 C4.98787879,17.1121212 1.08333333,23.8727273 1.08333333,31.1121212 C1.08333333,38.3515152 4.98939394,45.1090909 11.2757576,48.75 C12.469697,49.4409091 13.7575758,50.0106061 15.1212121,50.4530303 C16.7227273,55.469697 19.7030303,59.8924242 23.8151515,63.3287879 C25.1,64.4030303 27.0106061,64.2318182 28.0833333,62.9469697 C29.1560606,61.6621212 28.9863636,59.7515152 27.7015152,58.680303 C24.1151515,55.6818182 21.6287879,51.7318182 20.5106061,47.2575758 C20.2348485,46.1545455 19.3666667,45.3 18.2606061,45.0424242 C16.8181818,44.7045455 15.4909091,44.1878788 14.3121212,43.5045455 C9.89090909,40.9454545 7.14393939,36.1969697 7.14393939,31.1121212 C7.14393939,26.0272727 9.89090909,21.2757576 14.3121212,18.7121212 C16.4969697,17.4469697 18.9727273,16.7787879 21.3590909,16.7757576 C21.4181818,16.780303 21.5984848,16.7924242 21.6575758,16.7939394 C22.6606061,16.8287879 23.5727273,16.3651515 24.1606061,15.5772727 C25.95,13.180303 28.1590909,11.2121212 30.7242424,9.72575758 C34.0393939,7.80454545 37.8,6.78939394 41.6045455,6.78939394 C49.3257576,6.78939394 56.3121212,10.7727273 60.2909091,17.4424242 C61.1181818,18.8287879 62.8893939,19.3257576 64.3212121,18.5621212 C67.2681818,16.9893939 70.9333333,17.0424242 73.8590909,18.730303 C76.9,20.4909091 78.7878788,23.7545455 78.7878788,27.2439394 C78.7878788,29.0181818 78.3060606,30.7590909 77.3954545,32.2833333 C76.7469697,33.3651515 76.8378788,34.7363636 77.6227273,35.7242424 C79.6590909,38.2833333 80.7348485,41.3560606 80.7348485,44.6045455 C80.7348485,49.6909091 77.9878788,54.4424242 73.5636364,57.0030303 C70.3575758,58.8621212 66.5666667,59.4348485 62.8757576,58.4833333 C61.25,58.0727273 59.6030303,59.0454545 59.1848485,60.6636364 C58.769697,62.2848485 59.7454545,63.9363636 61.3651515,64.3545455 C63.0333333,64.780303 64.7287879,65 66.4030303,65 C69.9666667,65 73.4939394,64.0469697 76.5984848,62.2484848 C82.8863636,58.6090909 86.7939394,51.85 86.7939394,44.6060606 C86.7954545,40.6393939 85.6742424,36.8621212 83.5333333,33.5712121 L83.5333333,33.5712121 Z" id="Shape" sketch:type="MSShapeGroup"></path>
        </g>
    </g>
</svg>