<?xml version="1.0" encoding="UTF-8" standalone="no"?>
<svg width="89px" height="100px" viewBox="0 0 89 100" version="1.1" xmlns="http://www.w3.org/2000/svg" xmlns:xlink="http://www.w3.org/1999/xlink" xmlns:sketch="http://www.bohemiancoding.com/sketch/ns">
    <!-- Generator: Sketch 3.3.2 (12043) - http://www.bohemiancoding.com/sketch -->
    <title>light rain</title>
    <desc>Created with Sketch.</desc>
    <defs></defs>
    <g id="Page-1" stroke="none" stroke-width="1" fill="none" fill-rule="evenodd" sketch:type="MSPage">
        <g id="light-rain" sketch:type="MSLayerGroup" transform="translate(-1.000000, 0.000000)" fill="#ffffff">
            <path d="M86.1421875,34.61875 C87.0328125,32.565625 87.4984375,30.3453125 87.4984375,28.09375 C87.4984375,22.275 84.3578125,16.8390625 79.2984375,13.903125 C75.2765625,11.5765625 70.3203125,11.0890625 66.025,12.496875 C60.653125,5.1890625 52.0234375,0.746875 42.903125,0.746875 C37.88125,0.746875 32.91875,2.0859375 28.55,4.61875 C25.621875,6.315625 23.0484375,8.4875 20.88125,11.0875 C17.6390625,11.2859375 14.4625,12.24375 11.625,13.8875 C5.14375,17.6453125 1.115625,24.6171875 1.115625,32.0828125 C1.115625,39.5484375 5.1421875,46.5171875 11.6265625,50.2703125 C12.8578125,50.984375 14.1875,51.571875 15.59375,52.028125 C17.0328125,56.5140625 19.5765625,60.5953125 23.0203125,63.9171875 C24.2625,65.115625 26.2421875,65.078125 27.4390625,63.8375 C28.6375,62.5953125 28.6015625,60.615625 27.359375,59.41875 C24.3078125,56.475 22.1609375,52.7796875 21.1484375,48.73125 C20.8640625,47.5953125 19.96875,46.7125 18.8296875,46.446875 C17.3421875,46.0984375 15.9734375,45.565625 14.7578125,44.8625 C10.1984375,42.2234375 7.3671875,37.3265625 7.3671875,32.084375 C7.3671875,26.840625 10.1984375,21.940625 14.759375,19.296875 C17.0109375,17.9921875 19.565625,17.3015625 22.025,17.2984375 C22.0859375,17.303125 22.271875,17.315625 22.3328125,17.3171875 C23.36875,17.3375 24.309375,16.875 24.9140625,16.0625 C26.7609375,13.590625 29.0375,11.5609375 31.6828125,10.028125 C35.1015625,8.046875 38.9796875,7 42.9015625,7 C50.8671875,7 58.0703125,11.10625 62.171875,17.984375 C63.025,19.415625 64.853125,19.9265625 66.3265625,19.140625 C69.3734375,17.515625 73.1515625,17.571875 76.1640625,19.3140625 C79.3,21.1328125 81.246875,24.4984375 81.246875,28.096875 C81.246875,29.925 80.7515625,31.7234375 79.8109375,33.296875 C79.14375,34.4140625 79.2375,35.8265625 80.046875,36.8453125 C82.146875,39.4859375 83.25625,42.653125 83.25625,46.0046875 C83.25625,51.25 80.4234375,56.15 75.8609375,58.790625 C73.6078125,60.096875 71.0546875,60.7859375 68.4765625,60.7859375 C67.8625,60.7859375 67.2296875,60.740625 66.540625,60.64375 C64.840625,60.4140625 63.253125,61.6015625 63.0171875,63.3125 C62.7828125,65.021875 63.975,66.6 65.6859375,66.8359375 C66.6625,66.9703125 67.575,67.0359375 68.4765625,67.0359375 C72.153125,67.0359375 75.790625,66.0546875 78.9921875,64.2 C85.4765625,60.446875 89.50625,53.475 89.50625,46.0046875 C89.5078125,41.909375 88.35,38.0140625 86.1421875,34.61875 L86.1421875,34.61875 Z" id="Shape" sketch:type="MSShapeGroup"></path>
            <path d="M45.3125,82.0640625 C43.5875,82.0640625 42.1875,83.4640625 42.1875,85.1890625 L42.1875,96.1265625 C42.1875,97.8515625 43.5875,99.2515625 45.3125,99.2515625 C47.0375,99.2515625 48.4375,97.8515625 48.4375,96.1265625 L48.4375,85.1890625 C48.4375,83.4640625 47.0375,82.0640625 45.3125,82.0640625 L45.3125,82.0640625 Z" id="Shape" sketch:type="MSShapeGroup"></path>
            <path d="M45.3125,52.3765625 C43.5875,52.3765625 42.1875,53.7765625 42.1875,55.5015625 L42.1875,66.4390625 C42.1875,68.1640625 43.5875,69.5640625 45.3125,69.5640625 C47.0375,69.5640625 48.4375,68.1640625 48.4375,66.4390625 L48.4375,55.5015625 C48.4375,53.7765625 47.0375,52.3765625 45.3125,52.3765625 L45.3125,52.3765625 Z" id="Shape" sketch:type="MSShapeGroup"></path>
            <path d="M35.53125,68.0015625 C33.80625,68.0015625 32.40625,69.4015625 32.40625,71.1265625 L32.40625,82.0640625 C32.40625,83.7890625 33.80625,85.1890625 35.53125,85.1890625 C37.25625,85.1890625 38.65625,83.7890625 38.65625,82.0640625 L38.65625,71.1265625 C38.65625,69.4015625 37.2578125,68.0015625 35.53125,68.0015625 L35.53125,68.0015625 Z" id="Shape" sketch:type="MSShapeGroup"></path>
            <path d="M35.53125,38.3140625 C33.80625,38.3140625 32.40625,39.7140625 32.40625,41.4390625 L32.40625,52.3765625 C32.40625,54.1015625 33.80625,55.5015625 35.53125,55.5015625 C37.25625,55.5015625 38.65625,54.1015625 38.65625,52.3765625 L38.65625,41.4390625 C38.65625,39.7140625 37.2578125,38.3140625 35.53125,38.3140625 L35.53125,38.3140625 Z" id="Shape" sketch:type="MSShapeGroup"></path>
            <path d="M55.09375,75.8140625 C53.36875,75.8140625 51.96875,77.2140625 51.96875,78.9390625 L51.96875,89.8765625 C51.96875,91.6015625 53.36875,93.0015625 55.09375,93.0015625 C56.81875,93.0015625 58.21875,91.6015625 58.21875,89.8765625 L58.21875,78.9390625 C58.21875,77.2140625 56.81875,75.8140625 55.09375,75.8140625 L55.09375,75.8140625 Z" id="Shape" sketch:type="MSShapeGroup"></path>
            <path d="M55.09375,46.1265625 C53.36875,46.1265625 51.96875,47.5265625 51.96875,49.2515625 L51.96875,60.1890625 C51.96875,61.9140625 53.36875,63.3140625 55.09375,63.3140625 C56.81875,63.3140625 58.21875,61.9140625 58.21875,60.1890625 L58.21875,49.2515625 C58.21875,47.5265625 56.81875,46.1265625 55.09375,46.1265625 L55.09375,46.1265625 Z" id="Shape" sketch:type="MSShapeGroup"></path>
        </g>
    </g>
</svg>