<?xml version="1.0" encoding="UTF-8" standalone="no"?>
<svg width="98px" height="96px" viewBox="0 0 98 96" version="1.1" xmlns="http://www.w3.org/2000/svg" xmlns:xlink="http://www.w3.org/1999/xlink" xmlns:sketch="http://www.bohemiancoding.com/sketch/ns">
    <!-- Generator: Sketch 3.3.2 (12043) - http://www.bohemiancoding.com/sketch -->
    <title>groza</title>
    <desc>Created with Sketch.</desc>
    <defs></defs>
    <g id="Page-1" stroke="none" stroke-width="1" fill="none" fill-rule="evenodd" sketch:type="MSPage">
        <g id="groza" sketch:type="MSLayerGroup" transform="translate(-1.000000, -1.000000)" fill="#ffffff">
            <path d="M95.0534483,38.8431034 C96.0362069,36.5775862 96.55,34.1275862 96.55,31.6431034 C96.55,25.2241379 93.0844828,19.2258621 87.5017241,15.9862069 C83.0637931,13.4206897 77.5913793,12.8844828 72.8568966,14.4327586 C66.9275862,6.36896552 57.4051724,1.46724138 47.3413793,1.46724138 C41.8017241,1.46724138 36.3258621,2.94482759 31.5034483,5.74137931 C28.2706897,7.61206897 25.4310345,10.0103448 23.0396552,12.8793103 C19.4637931,13.0965517 15.9586207,14.1534483 12.8275862,15.9689655 C5.67413793,20.1137931 1.23103448,27.8068966 1.23103448,36.0465517 C1.23103448,44.2827586 5.67586207,51.9724138 12.8275862,56.1137931 C14.1844828,56.9 15.6517241,57.55 17.2086207,58.0534483 C18.7965517,63.0051724 21.6034483,67.5086207 25.4034483,71.1724138 C26.7741379,72.4948276 28.9586207,72.4534483 30.2793103,71.0844828 C31.6017241,69.712069 31.562069,67.5293103 30.1896552,66.2086207 C26.8241379,62.962069 24.4551724,58.8844828 23.337931,54.4155172 C23.0241379,53.1603448 22.0362069,52.187931 20.7775862,51.8931034 C19.1327586,51.5068966 17.6224138,50.9206897 16.2844828,50.1448276 C11.2534483,47.2327586 8.12758621,41.8293103 8.12758621,36.0448276 C8.12758621,30.2568966 11.2534483,24.85 16.2844828,21.9344828 C18.7706897,20.4948276 21.5896552,19.7327586 24.3068966,19.7293103 C24.3810345,19.7362069 24.5982759,19.7482759 24.6724138,19.7482759 C25.8344828,19.7896552 26.8293103,19.25 27.4931034,18.3637931 C29.5293103,15.6362069 32.0413793,13.3982759 34.962069,11.7068966 C38.7344828,9.51896552 43.0155172,8.3637931 47.3413793,8.3637931 C56.1293103,8.3637931 64.0775862,12.8948276 68.6051724,20.4844828 C69.5465517,22.0655172 71.5637931,22.6275862 73.187931,21.7603448 C76.55,19.9724138 80.7206897,20.0310345 84.0448276,21.9534483 C87.5051724,23.9603448 89.6534483,27.6724138 89.6534483,31.6431034 C89.6534483,33.6603448 89.1068966,35.6448276 88.0689655,37.3810345 C87.3327586,38.6137931 87.4362069,40.1724138 88.3293103,41.2965517 C90.6465517,44.2103448 91.8706897,47.7051724 91.8706897,51.4051724 C91.8706897,57.1913793 88.7448276,62.5982759 83.7103448,65.512069 C81.2241379,66.9534483 78.4068966,67.7137931 75.562069,67.7137931 C74.8775862,67.7137931 74.1775862,67.6637931 73.4258621,67.5586207 C71.55,67.3051724 69.7982759,68.6155172 69.537931,70.5034483 C69.2793103,72.3896552 70.5948276,74.1310345 72.4827586,74.3913793 C73.5517241,74.537931 74.5586207,74.6103448 75.562069,74.6103448 C79.6189655,74.6103448 83.6327586,73.5275862 87.1655172,71.4810345 C94.3206897,67.3396552 98.7672414,59.6465517 98.7672414,51.4051724 C98.7672414,46.8896552 97.4896552,42.5896552 95.0534483,38.8431034 L95.0534483,38.8431034 Z" id="Shape" sketch:type="MSShapeGroup"></path>
            <path d="M56.8224138,67.05 L47.8568966,70.787931 L53.4155172,55.8810345 C54.0827586,54.0965517 53.1741379,52.1086207 51.3896552,51.4448276 C49.6034483,50.7810345 47.6189655,51.687931 46.9534483,53.4706897 L38.6172414,75.8258621 C38.137931,77.1137931 38.4672414,78.5637931 39.4568966,79.5172414 C40.4465517,80.4689655 41.9051724,80.7413793 43.1758621,80.2137931 L51.7258621,76.6482759 L45.5206897,91.4810345 C44.7862069,93.237931 45.6137931,95.2568966 47.3706897,95.9913793 C47.8051724,96.1724138 48.2568966,96.2603448 48.7,96.2603448 C50.0482759,96.2586207 51.3293103,95.4637931 51.8827586,94.1413793 L61.3275862,71.5655172 C61.8672414,70.2758621 61.5758621,68.787931 60.5862069,67.7982759 C59.6,66.8034483 58.1068966,66.512069 56.8224138,67.05 L56.8224138,67.05 Z" id="Shape" sketch:type="MSShapeGroup"></path>
        </g>
    </g>
</svg>