<?xml version="1.0" encoding="UTF-8" standalone="no"?>
<svg width="97px" height="96px" viewBox="0 0 97 96" version="1.1" xmlns="http://www.w3.org/2000/svg" xmlns:xlink="http://www.w3.org/1999/xlink" xmlns:sketch="http://www.bohemiancoding.com/sketch/ns">
    <!-- Generator: Sketch 3.3.2 (12043) - http://www.bohemiancoding.com/sketch -->
    <title>snow</title>
    <desc>Created with Sketch.</desc>
    <defs></defs>
    <g id="Page-1" stroke="none" stroke-width="1" fill="none" fill-rule="evenodd" sketch:type="MSPage">
        <g id="snow" sketch:type="MSLayerGroup" transform="translate(-1.000000, 0.000000)" fill="#ffffff">
            <path d="M69.6409962,59.8574713 C68.4651341,57.851341 65.887931,57.1749042 63.8754789,58.3465517 L56.4367816,62.6938697 L56.4367816,54.0793103 C56.4367816,51.7528736 54.548659,49.864751 52.2222222,49.864751 C49.8957854,49.864751 48.0076628,51.7528736 48.0076628,54.0793103 L48.0076628,62.7001916 L40.564751,58.348659 C38.5501916,57.1706897 35.9729885,57.851341 34.7992337,59.8595785 C33.6233716,61.8699234 34.3019157,64.451341 36.3101533,65.6250958 L43.8689655,70.0461686 L36.3101533,74.4651341 C34.2998084,75.6409962 33.6233716,78.2203065 34.7992337,80.2306513 C35.5831418,81.5708812 36.9929119,82.3168582 38.4427203,82.3168582 C39.1655172,82.3168582 39.8967433,82.1314176 40.564751,81.7415709 L48.0055556,77.3921456 L48.0055556,86.0172414 C48.0055556,88.3436782 49.8915709,90.2318008 52.2201149,90.2318008 C54.5465517,90.2318008 56.4346743,88.3436782 56.4346743,86.0172414 L56.4367816,77.3921456 L63.8754789,81.7415709 C64.5434866,82.1335249 65.2768199,82.3168582 65.9996169,82.3168582 C67.4494253,82.3168582 68.8570881,81.5708812 69.6431034,80.2306513 C70.8189655,78.2203065 70.1404215,75.6388889 68.1321839,74.4651341 L60.5733716,70.0461686 L68.1321839,65.6250958 C70.1383142,64.4492337 70.814751,61.8699234 69.6409962,59.8574713 L69.6409962,59.8574713 Z" id="Shape" sketch:type="MSShapeGroup"></path>
            <path d="M30.6416449,79.5686567 C30.0227543,78.5127716 28.6662968,78.1567431 27.6070844,78.7734155 L23.6918802,81.0615362 L23.6918802,76.5274414 C23.6918802,75.3029696 22.698106,74.3091954 21.4736342,74.3091954 C20.2491624,74.3091954 19.2553882,75.3029696 19.2553882,76.5274414 L19.2553882,81.0648636 L15.3379658,78.7745246 C14.2776442,78.1545248 12.9211867,78.5127716 12.3034052,79.5697658 C11.6845146,80.6278691 12.0416522,81.9865448 13.0986464,82.6043263 L17.0770706,84.9312664 L13.0986464,87.2570973 C12.0405431,87.8759879 11.6845146,89.2335545 12.3034052,90.2916578 C12.715999,90.99706 13.4580023,91.3896896 14.2210789,91.3896896 C14.6015081,91.3896896 14.9863738,91.2920868 15.3379658,91.086899 L19.2542791,88.7976691 L19.2542791,93.3373096 C19.2542791,94.5617813 20.2469441,95.5555556 21.4725251,95.5555556 C22.6969969,95.5555556 23.6907711,94.5617813 23.6907711,93.3373096 L23.6918802,88.7976691 L27.6070844,91.086899 C27.9586764,91.2931959 28.3446512,91.3896896 28.7250803,91.3896896 C29.488157,91.3896896 30.2290511,90.99706 30.642754,90.2916578 C31.2616446,89.2335545 30.904507,87.8748788 29.8475128,87.2570973 L25.8690886,84.9312664 L29.8475128,82.6043263 C30.9033979,81.9854357 31.2594264,80.6278691 30.6416449,79.5686567 L30.6416449,79.5686567 Z" id="Shape-Copy" sketch:type="MSShapeGroup"></path>
            <path d="M94.1120912,36.9749957 C95.0821197,34.7388248 95.5892574,32.3205608 95.5892574,29.8682607 C95.5892574,23.5307412 92.1686306,17.6101639 86.6581881,14.4124735 C82.2777436,11.8784868 76.8796202,11.3492256 72.20136,12.8808495 C66.3505566,4.92151053 56.9514911,0.083280725 47.0180591,0.083280725 C41.5484598,0.083280725 36.1435292,1.54172706 31.3852842,4.30035194 C28.1961028,6.14851147 25.393231,8.51401954 23.0328284,11.345822 C19.5015843,11.5619512 16.041816,12.6051572 12.9530411,14.3954554 C5.89225482,18.4882949 1.50670498,26.081746 1.50670498,34.2129672 C1.50670498,42.3441885 5.89395663,49.9342359 12.9547429,54.02197 C14.2957648,54.7996946 15.7440003,55.439573 17.277326,55.9364999 C18.8446878,60.8257838 21.6152253,65.269195 25.3660021,68.8855293 C26.7189366,70.1908133 28.8751227,70.1499699 30.1787049,68.7987373 C31.4839888,67.444101 31.4448473,65.2896167 30.0902111,63.9860345 C26.7682889,60.7832387 24.4300097,56.7584714 23.3272405,52.3439909 C23.0175121,51.1067791 22.0423782,50.1469615 20.800061,49.8559529 C19.1799433,49.4764505 17.6891627,48.8978371 16.3651589,48.1303233 C11.3992937,45.2559757 8.31392243,39.9225209 8.31392243,34.2112654 C8.31392243,28.50001 11.3992937,23.1631515 16.3651589,20.2836985 C18.8191608,18.8626919 21.5999091,18.1104943 24.280251,18.1070907 C24.3466213,18.1121961 24.5491361,18.1258106 24.6155064,18.1275124 C25.7438027,18.1564431 26.7665871,17.6459017 27.4268872,16.7609635 C29.4367182,14.068709 31.9179489,11.8580651 34.7991037,10.188595 C38.5226517,8.0307071 42.7465301,6.89049818 47.0180591,6.89049818 C55.6938577,6.89049818 63.5391758,11.36284 68.0064123,18.8541828 C68.9355974,20.4130356 70.9267085,20.9712275 72.5315101,20.1135181 C75.8500286,18.3453433 79.9649915,18.4049065 83.2460703,20.3024184 C86.6615917,22.2833186 88.7820399,25.9490052 88.7820399,29.8682607 C88.7820399,31.8593718 88.2425679,33.8181486 87.2180817,35.5318656 C86.4914112,36.7486557 86.5935195,38.2870869 87.4750542,39.3966633 C89.7622792,42.2727127 90.9705603,45.7222701 90.9705603,49.3726405 C90.9705603,55.0855977 87.885189,60.4224562 82.9159203,63.2985056 C80.4619184,64.721214 77.6811701,65.4717098 74.8731929,65.4717098 C74.1975765,65.4717098 73.506644,65.4223574 72.7646573,65.3185474 C70.9130941,65.0700839 69.1840609,66.3617534 68.9270884,68.2252292 C68.6718178,70.0870032 69.9702945,71.8058256 71.8337703,72.062798 C72.888889,72.2074514 73.8827427,72.2789272 74.8731929,72.2789272 C78.8775385,72.2789272 82.8393391,71.2101941 86.3263362,69.1901523 C93.3888243,65.1024182 97.7777778,57.5089671 97.7777778,49.3726405 C97.7777778,44.9156149 96.5167407,40.6730166 94.1120912,36.9749957 L94.1120912,36.9749957 Z" id="Shape" sketch:type="MSShapeGroup"></path>
        </g>
    </g>
</svg>