<?xml version="1.0" encoding="UTF-8" standalone="no"?>
<svg width="100px" height="34px" viewBox="0 0 100 34" version="1.1" xmlns="http://www.w3.org/2000/svg" xmlns:xlink="http://www.w3.org/1999/xlink" xmlns:sketch="http://www.bohemiancoding.com/sketch/ns">
    <!-- Generator: Sketch 3.3.2 (12043) - http://www.bohemiancoding.com/sketch -->
    <title>fog</title>
    <desc>Created with Sketch.</desc>
    <defs></defs>
    <g id="Page-1" stroke="none" stroke-width="1" fill="none" fill-rule="evenodd" sketch:type="MSPage">
        <g id="fog" sketch:type="MSLayerGroup" fill="#ffffff">
            <path d="M97.227027,13.972973 L14.5581081,13.972973 C13.0662162,13.972973 11.8554054,15.1837838 11.8554054,16.6756757 C11.8554054,18.1675676 13.0662162,19.3783784 14.5581081,19.3783784 L97.227027,19.3783784 C98.7189189,19.3783784 99.9297297,18.1675676 99.9297297,16.6756757 C99.9297297,15.1837838 98.7202703,13.972973 97.227027,13.972973 L97.227027,13.972973 Z" id="Shape" sketch:type="MSShapeGroup"></path>
            <path d="M51.5337838,27.8378378 L3.98783784,27.8378378 C2.49594595,27.8378378 1.28513514,29.0486486 1.28513514,30.5405405 C1.28513514,32.0324324 2.49594595,33.2432432 3.98783784,33.2432432 L51.5337838,33.2432432 C53.0256757,33.2432432 54.2364865,32.0324324 54.2364865,30.5405405 C54.2364865,29.0486486 53.0256757,27.8378378 51.5337838,27.8378378 L51.5337838,27.8378378 Z" id="Shape" sketch:type="MSShapeGroup"></path>
            <path d="M82.072973,5.51351351 C83.5648649,5.51351351 84.7756757,4.3027027 84.7756757,2.81081081 C84.7756757,1.31891892 83.5648649,0.108108108 82.072973,0.108108108 L2.77162162,0.108108108 C1.27972973,0.108108108 0.0689189189,1.31891892 0.0689189189,2.81081081 C0.0689189189,4.3027027 1.27972973,5.51351351 2.77162162,5.51351351 L82.072973,5.51351351 L82.072973,5.51351351 Z" id="Shape" sketch:type="MSShapeGroup"></path>
        </g>
    </g>
</svg>